<svg xmlns="http://www.w3.org/2000/svg" width="89" height="157.9" viewBox="0 0 89 157.9"><defs><marker id="a" viewBox="0 0 10 10" refX="10" refY="5" markerWidth="5.5" markerHeight="5.5" orient="auto"><path d="M0 0L10 5L0 10z" fill="#555"/></marker></defs><g fill="none" stroke="#555" stroke-width="1.1" marker-end="url(#a)"><path d="M11.5 142.9L11.5 110.5"/><path d="M11.5 102.9L11.5 70.5"/><path d="M33.5 102.9L33.5 70.5"/><path d="M12.4 63L21.4 30.4"/><path d="M32.6 63L23.6 30.4"/><path d="M26 24.2A8 8 0 1 0 19 24.2"/><path d="M75.5 24.2A8 8 0 1 0 68.5 24.2"/></g><g fill="#1b2a4a"><circle cx="11.5" cy="146.4" r="3.5"/><circle cx="11.5" cy="106.4" r="3.5"/><circle cx="11.5" cy="66.4" r="3.5"/><circle cx="33.5" cy="106.4" r="3.5"/><circle cx="33.5" cy="66.4" r="3.5"/><circle cx="22.5" cy="26.4" r="3.5"/><circle cx="72" cy="26.4" r="3.5"/></g></svg>
