<svg xmlns="http://www.w3.org/2000/svg" width="167.8" height="116" viewBox="0 0 167.8 116"><defs><marker id="a" viewBox="0 0 10 10" refX="10" refY="5" markerWidth="5.5" markerHeight="5.5" orient="auto"><path d="M0 0L10 5L0 10z" fill="#555"/></marker></defs><g fill="none" stroke="#555" stroke-width="1.1" marker-end="url(#a)"><path d="M109.3 14.9L100.4 47.5"/><path d="M89.2 14.9L98.2 47.5"/><path d="M14.5 102.7L42.6 86.5"/><path d="M49.5 83.6L82.3 75"/><path d="M59.6 101L83.4 76.9"/><path d="M95.2 52.1A15 15 0 0 0 84.7 70.2"/><path d="M88.8 77.2A15 15 0 0 0 109.8 77.2"/><path d="M113.8 70.2A15 15 0 0 0 103.3 52.1"/><path d="M154.2 24.2A8 8 0 1 0 147.3 24.2"/></g><g fill="#1b2a4a"><circle cx="110.3" cy="11.5" r="3.5"/><circle cx="88.3" cy="11.5" r="3.5"/><circle cx="99.3" cy="51.5" r="3.5"/><circle cx="11.5" cy="104.5" r="3.5"/><circle cx="46.1" cy="84.5" r="3.5"/><circle cx="57.1" cy="103.5" r="3.5"/><circle cx="86.3" cy="74" r="3.5"/><circle cx="112.3" cy="74" r="3.5"/><circle cx="150.8" cy="26.4" r="3.5"/></g></svg>
