<svg xmlns="http://www.w3.org/2000/svg" width="150" height="93" viewBox="0 0 150 93"><defs><marker id="a" viewBox="0 0 10 10" refX="10" refY="5" markerWidth="5.5" markerHeight="5.5" orient="auto"><path d="M0 0L10 5L0 10z" fill="#555"/></marker></defs><g fill="none" stroke="#555" stroke-width="1.1" marker-end="url(#a)"><path d="M13.9 78.1L22.9 45.5"/><path d="M34.1 78.1L25.1 45.5"/><path d="M20 12.1A15 15 0 0 0 20 40.9"/><path d="M28 40.9A15 15 0 0 0 28 12.1"/><path d="M92.1 14.9L83.1 47.5"/><path d="M71.9 14.9L80.9 47.5"/><path d="M78 52.1A15 15 0 0 0 78 80.9"/><path d="M86 80.9A15 15 0 0 0 86 52.1"/><path d="M136.5 24.2A8 8 0 1 0 129.5 24.2"/></g><g fill="#1b2a4a"><circle cx="24" cy="11.5" r="3.5"/><circle cx="13" cy="81.5" r="3.5"/><circle cx="35" cy="81.5" r="3.5"/><circle cx="24" cy="41.5" r="3.5"/><circle cx="93" cy="11.5" r="3.5"/><circle cx="71" cy="11.5" r="3.5"/><circle cx="82" cy="51.5" r="3.5"/><circle cx="82" cy="81.5" r="3.5"/><circle cx="133" cy="26.4" r="3.5"/></g></svg>
