<svg xmlns="http://www.w3.org/2000/svg" width="89.1" height="315" viewBox="0 0 89.1 315"><defs><marker id="a" viewBox="0 0 10 10" refX="10" refY="5" markerWidth="5.5" markerHeight="5.5" orient="auto"><path d="M0 0L10 5L0 10z" fill="#555"/></marker></defs><g fill="none" stroke="#555" stroke-width="1.1" marker-end="url(#a)"><path d="M75.6 15L75.6 47.4"/><path d="M75.6 55L75.6 87.4"/><path d="M75.6 95L75.6 127.4"/><path d="M75.6 135L75.6 167.4"/><path d="M75.6 175L75.6 207.4"/><path d="M74.7 214.9L65.7 247.5"/><path d="M54.6 214.9L63.5 247.5"/><path d="M14.9 283.6L47.7 275"/><path d="M25 301L48.8 276.9"/><path d="M60.6 252.1A15 15 0 0 0 50.1 270.2"/><path d="M54.1 277.2A15 15 0 0 0 75.1 277.2"/><path d="M79.2 270.2A15 15 0 0 0 68.7 252.1"/></g><g fill="#1b2a4a"><circle cx="75.6" cy="11.5" r="3.5"/><circle cx="75.6" cy="51.5" r="3.5"/><circle cx="75.6" cy="91.5" r="3.5"/><circle cx="75.6" cy="131.5" r="3.5"/><circle cx="75.6" cy="171.5" r="3.5"/><circle cx="75.6" cy="211.5" r="3.5"/><circle cx="53.6" cy="211.5" r="3.5"/><circle cx="64.6" cy="251.5" r="3.5"/><circle cx="11.5" cy="284.5" r="3.5"/><circle cx="22.5" cy="303.5" r="3.5"/><circle cx="51.6" cy="274" r="3.5"/><circle cx="77.6" cy="274" r="3.5"/></g></svg>
