<svg xmlns="http://www.w3.org/2000/svg" width="48" height="173" viewBox="0 0 48 173"><defs><marker id="a" viewBox="0 0 10 10" refX="10" refY="5" markerWidth="5.5" markerHeight="5.5" orient="auto"><path d="M0 0L10 5L0 10z" fill="#555"/></marker></defs><g fill="none" stroke="#555" stroke-width="1.1" marker-end="url(#a)"><path d="M35 15L35 47.4"/><path d="M13 15L13 47.4"/><path d="M34.1 54.9L25.1 87.5"/><path d="M13.9 54.9L22.9 87.5"/><path d="M13.9 158.1L22.9 125.5"/><path d="M34.1 158.1L25.1 125.5"/><path d="M20 92.1A15 15 0 0 0 20 120.9"/><path d="M28 120.9A15 15 0 0 0 28 92.1"/></g><g fill="#1b2a4a"><circle cx="35" cy="11.5" r="3.5"/><circle cx="35" cy="51.5" r="3.5"/><circle cx="13" cy="11.5" r="3.5"/><circle cx="13" cy="51.5" r="3.5"/><circle cx="24" cy="91.5" r="3.5"/><circle cx="13" cy="161.5" r="3.5"/><circle cx="35" cy="161.5" r="3.5"/><circle cx="24" cy="121.5" r="3.5"/></g></svg>
