<svg xmlns="http://www.w3.org/2000/svg" width="133" height="253" viewBox="0 0 133 253"><defs><marker id="a" viewBox="0 0 10 10" refX="10" refY="5" markerWidth="5.5" markerHeight="5.5" orient="auto"><path d="M0 0L10 5L0 10z" fill="#555"/></marker></defs><g fill="none" stroke="#555" stroke-width="1.1" marker-end="url(#a)"><path d="M32.6 14.9L23.6 47.5"/><path d="M12.4 14.9L21.4 47.5"/><path d="M54.2 54.7L40.6 87.7"/><path d="M23.8 54.7L37.4 87.7"/><path d="M76 94.7L60 127.8"/><path d="M40.5 94.7L56.5 127.8"/><path d="M58.2 135L58.2 167.4"/><path d="M58.2 238L58.2 205.6"/><path d="M54.2 172.1A15 15 0 0 0 54.2 200.9"/><path d="M62.3 200.9A15 15 0 0 0 62.3 172.1"/><path d="M119.5 24.2A8 8 0 1 0 112.5 24.2"/></g><g fill="#1b2a4a"><circle cx="77.5" cy="91.5" r="3.5"/><circle cx="55.5" cy="51.5" r="3.5"/><circle cx="33.5" cy="11.5" r="3.5"/><circle cx="11.5" cy="11.5" r="3.5"/><circle cx="22.5" cy="51.5" r="3.5"/><circle cx="39" cy="91.5" r="3.5"/><circle cx="58.2" cy="131.5" r="3.5"/><circle cx="58.2" cy="171.5" r="3.5"/><circle cx="58.2" cy="241.5" r="3.5"/><circle cx="58.2" cy="201.5" r="3.5"/><circle cx="116" cy="26.4" r="3.5"/></g></svg>
