<svg xmlns="http://www.w3.org/2000/svg" width="177" height="165.8" viewBox="0 0 177 165.8"><defs><marker id="a" viewBox="0 0 10 10" refX="10" refY="5" markerWidth="5.5" markerHeight="5.5" orient="auto"><path d="M0 0L10 5L0 10z" fill="#555"/></marker></defs><g fill="none" stroke="#555" stroke-width="1.1" marker-end="url(#a)"><path d="M12.4 103L21.4 70.4"/><path d="M32.6 103L23.6 70.4"/><path d="M22.5 62.9L22.5 30.5"/><path d="M26 24.2A8 8 0 1 0 19 24.2"/><path d="M75.5 24.2A8 8 0 1 0 68.5 24.2"/><path d="M119.5 24.2A8 8 0 1 0 112.5 24.2"/><path d="M163.5 24.2A8 8 0 1 0 156.5 24.2"/><path d="M20.5 152.1A8 8 0 1 0 13.5 152.1"/></g><g fill="#1b2a4a"><circle cx="11.5" cy="106.4" r="3.5"/><circle cx="33.5" cy="106.4" r="3.5"/><circle cx="22.5" cy="66.4" r="3.5"/><circle cx="22.5" cy="26.4" r="3.5"/><circle cx="72" cy="26.4" r="3.5"/><circle cx="116" cy="26.4" r="3.5"/><circle cx="160" cy="26.4" r="3.5"/><circle cx="17" cy="154.3" r="3.5"/></g></svg>
