<svg xmlns="http://www.w3.org/2000/svg" width="213" height="157.9" viewBox="0 0 213 157.9"><defs><marker id="a" viewBox="0 0 10 10" refX="10" refY="5" markerWidth="5.5" markerHeight="5.5" orient="auto"><path d="M0 0L10 5L0 10z" fill="#555"/></marker></defs><g fill="none" stroke="#555" stroke-width="1.1" marker-end="url(#a)"><path d="M12.4 143L21.4 110.4"/><path d="M32.6 143L23.6 110.4"/><path d="M23.8 103.2L37.4 70.2"/><path d="M54.2 103.2L40.6 70.2"/><path d="M39 62.9L39 30.5"/><path d="M42.5 24.2A8 8 0 1 0 35.5 24.2"/><path d="M101 15L101 47.4"/><path d="M101 118L101 85.6"/><path d="M97 52.1A15 15 0 0 0 97 80.9"/><path d="M105 80.9A15 15 0 0 0 105 52.1"/><path d="M152 62.9L152 30.5"/><path d="M155.5 24.2A8 8 0 1 0 148.5 24.2"/><path d="M199.5 24.2A8 8 0 1 0 192.5 24.2"/></g><g fill="#1b2a4a"><circle cx="11.5" cy="146.4" r="3.5"/><circle cx="33.5" cy="146.4" r="3.5"/><circle cx="22.5" cy="106.4" r="3.5"/><circle cx="55.5" cy="106.4" r="3.5"/><circle cx="39" cy="66.4" r="3.5"/><circle cx="39" cy="26.4" r="3.5"/><circle cx="101" cy="11.5" r="3.5"/><circle cx="101" cy="51.5" r="3.5"/><circle cx="101" cy="121.5" r="3.5"/><circle cx="101" cy="81.5" r="3.5"/><circle cx="152" cy="66.4" r="3.5"/><circle cx="152" cy="26.4" r="3.5"/><circle cx="196" cy="26.4" r="3.5"/></g></svg>
