<svg xmlns="http://www.w3.org/2000/svg" width="144" height="165.8" viewBox="0 0 144 165.8"><defs><marker id="a" viewBox="0 0 10 10" refX="10" refY="5" markerWidth="5.5" markerHeight="5.5" orient="auto"><path d="M0 0L10 5L0 10z" fill="#555"/></marker></defs><g fill="none" stroke="#555" stroke-width="1.1" marker-end="url(#a)"><path d="M33.5 102.9L33.5 70.5"/><path d="M12.4 63L21.4 30.4"/><path d="M32.6 63L23.6 30.4"/><path d="M26 24.2A8 8 0 1 0 19 24.2"/><path d="M67.4 63L76.4 30.4"/><path d="M87.6 63L78.6 30.4"/><path d="M81 24.2A8 8 0 1 0 74 24.2"/><path d="M130.5 24.2A8 8 0 1 0 123.5 24.2"/><path d="M20.5 152.1A8 8 0 1 0 13.5 152.1"/></g><g fill="#1b2a4a"><circle cx="11.5" cy="66.4" r="3.5"/><circle cx="33.5" cy="106.4" r="3.5"/><circle cx="33.5" cy="66.4" r="3.5"/><circle cx="22.5" cy="26.4" r="3.5"/><circle cx="66.5" cy="66.4" r="3.5"/><circle cx="88.5" cy="66.4" r="3.5"/><circle cx="77.5" cy="26.4" r="3.5"/><circle cx="127" cy="26.4" r="3.5"/><circle cx="17" cy="154.3" r="3.5"/></g></svg>
